<?xml version="1.0" encoding="UTF-8" standalone="no"?>
<!-- Created with Inkscape (http://www.inkscape.org/) -->

<svg
   xmlns:dc="http://purl.org/dc/elements/1.1/"
   xmlns:cc="http://creativecommons.org/ns#"
   xmlns:rdf="http://www.w3.org/1999/02/22-rdf-syntax-ns#"
   xmlns:svg="http://www.w3.org/2000/svg"
   xmlns="http://www.w3.org/2000/svg"
   xmlns:sodipodi="http://sodipodi.sourceforge.net/DTD/sodipodi-0.dtd"
   xmlns:inkscape="http://www.inkscape.org/namespaces/inkscape"
   width="200"
   height="250"
   viewBox="0 0 52.916666 66.145835"
   version="1.1"
   id="svg970"
   inkscape:version="0.92.2 (5c3e80d, 2017-08-06)"
   sodipodi:docname="bullseye-oven.svg">
  <defs
     id="defs964" />
  <sodipodi:namedview
     id="base"
     pagecolor="#ffffff"
     bordercolor="#666666"
     borderopacity="1.0"
     inkscape:pageopacity="0.0"
     inkscape:pageshadow="2"
     inkscape:zoom="1.24"
     inkscape:cx="115.93239"
     inkscape:cy="116.52778"
     inkscape:document-units="mm"
     inkscape:current-layer="layer1"
     showgrid="false"
     units="px"
     borderlayer="true"
     inkscape:showpageshadow="false"
     inkscape:window-width="1080"
     inkscape:window-height="675"
     inkscape:window-x="0"
     inkscape:window-y="23"
     inkscape:window-maximized="0"
     inkscape:snap-nodes="false" />
  <metadata
     id="metadata967">
    <rdf:RDF>
      <cc:Work
         rdf:about="">
        <dc:format>image/svg+xml</dc:format>
        <dc:type
           rdf:resource="http://purl.org/dc/dcmitype/StillImage" />
        <dc:title></dc:title>
      </cc:Work>
    </rdf:RDF>
  </metadata>
  <g
     inkscape:label="Layer 1"
     inkscape:groupmode="layer"
     id="layer1"
     transform="translate(0,-230.85415)">
    <path
       style="fill:#ffffff;stroke:none;stroke-width:0.26458332000000001px;stroke-linecap:butt;stroke-linejoin:miter;stroke-opacity:1;fill-opacity:1"
       d="m 5.7610888,233.62801 -0.640121,17.28326 -3.4139786,1.06687 -0.6401209,2.13374 1.7069892,10.88206 0.2133738,25.39146 -1.2802421,4.90759 c 0,0 13.2291668,-2.98723 22.6176078,-2.77385 9.388439,0.21337 24.324597,1.06686 24.324597,1.06686 l 1.920361,-2.34711 -0.640119,-42.46135 -5.334342,0.21337 0.426747,-2.13374 -0.213373,-14.5094 -18.990256,1.28024 H 13.015793 Z"
       id="path1579"
       inkscape:connector-curvature="0" />
    <g
       id="g4870"
       transform="matrix(0.97303038,0,0,0.97303038,-23.203863,133.78294)">
      <path
         inkscape:connector-curvature="0"
         d="m 26.999717,122.68626 c -0.055,0.49125 0.06232,0.96896 0.139859,1.45022 0.08051,0.52471 0.09836,1.05575 0.110093,1.58558 -0.03181,0.60152 0.07482,1.19206 0.1559,1.78512 0.08539,0.60046 0.09591,1.20692 0.107204,1.81215 0.0089,0.58091 0.0092,1.16189 0.0095,1.74284 -0.0072,0.66516 -0.0086,1.33032 -0.0065,1.9955 0.0051,0.60993 0.0024,1.21983 0.0011,1.82975 0.01463,0.58869 -0.0277,1.1803 0.0285,1.767 0.09475,0.53892 0.168838,1.07965 0.20919,1.62534 0.03278,0.53586 0.03414,1.07293 0.03587,1.60958 5.29e-4,0.53455 -5.29e-4,1.0691 -0.0011,1.60365 -5.3e-4,0.5345 -5.3e-4,1.06901 -5.3e-4,1.60352 -3.9e-5,0.53454 -2.9e-5,1.06907 -2.3e-5,1.60361 5e-6,0.53454 5e-6,1.06908 8e-6,1.60362 0,0.53454 0,1.06908 0,1.60362 0,0.53454 0,1.06908 0,1.60361 0,0.53454 0,1.06908 0,1.60362 0,0.53454 0,1.06908 0,1.60362 0,0.53454 0,1.06908 0,1.60362 0,0.53453 0,1.06907 0,1.60361 0,0.53454 0,1.06908 0,1.60362 0,0.53454 0,1.06908 0,1.60362 0.03901,0.54796 -0.06951,1.08313 -0.152575,1.62112 -0.07907,0.52585 -0.09804,1.05764 -0.109982,1.58842 0.0173,0.5081 -0.0127,1.0038 -0.111903,1.50169 -0.0027,0.38255 -0.30045,0.73047 -0.240744,1.11093 0.277984,0.26433 0.767469,0.10358 1.105424,0.0648 0.600191,-0.0376 1.149183,-0.2936 1.717151,-0.46519 0.622953,-0.13995 1.198515,-0.41436 1.816068,-0.57604 0.630526,-0.12557 1.272058,-0.16188 1.909342,-0.2432 0.775245,-0.1216 1.537306,-0.28705 2.319745,-0.36909 0.966493,-0.16617 1.946457,-0.24402 2.924971,-0.29715 0.965988,0.0108 1.908627,-0.0837 2.857204,-0.25693 0.866031,-0.17687 1.74489,-0.26636 2.626931,-0.3028 0.793364,-0.0271 1.587352,-0.0253 2.38107,-0.0261 0.77475,-2.4e-4 1.549485,0.005 2.32424,0.004 0.7317,0.003 1.4634,-0.002 2.195092,-0.005 0.696378,-0.002 1.392754,0.003 2.089121,0.007 0.806095,0.003 1.61218,-0.004 2.418268,-0.003 0.810307,0.004 1.620626,0.003 2.430936,0.001 0.770535,10e-4 1.541075,5.3e-4 2.311615,-0.002 0.76807,0.002 1.53614,0.004 2.30421,0.002 0.62413,-0.003 1.24825,-0.005 1.87238,-0.006 0.53799,-8e-4 1.07599,-8e-4 1.61398,-8e-4 0.52654,0.0214 1.06072,-0.049 1.5809,0.0446 0.47107,0.0964 0.93933,0.17398 1.4047,0.29438 0.50903,0.12961 1.03355,0.16395 1.5562,0.18539 0.52241,0.002 1.03157,-0.004 1.54291,0.10719 0.45286,0.0495 0.87795,0.18456 1.31563,0.30014 0.46739,0.10726 0.94855,0.12091 1.42585,0.13345 0.32398,0.009 0.65832,0.0245 0.96835,-0.0924 0.0631,-0.0238 0.23573,-0.13129 0.17697,-0.0982 -0.70146,0.3954 -1.40337,0.79 -2.10506,1.185 0.3444,-0.29141 0.34829,-0.7675 0.37387,-1.18508 -0.005,-0.47959 0.12218,-0.94449 0.19056,-1.41608 0.0637,-0.50483 0.0712,-1.01429 0.0778,-1.52238 0.0497,-0.4838 -0.0669,-0.94708 -0.15156,-1.41821 -0.0838,-0.50271 -0.0991,-1.01289 -0.1103,-1.52132 0.0315,-0.53577 -0.0779,-1.05822 -0.15763,-1.58439 -0.0785,-0.53635 -0.0976,-1.07846 -0.10943,-1.61959 -0.008,-0.53534 -0.007,-1.07077 -0.006,-1.60616 8e-4,-0.53451 10e-4,-1.06901 10e-4,-1.60352 1.7e-4,-0.53453 1.7e-4,-1.06905 1.7e-4,-1.60357 0,-0.53454 0,-1.06908 -1e-5,-1.60362 0,-0.53454 0,-1.06908 0,-1.60362 0,-0.53454 0,-1.06907 0,-1.60361 0,-0.53454 0,-1.06908 0,-1.60362 0,-0.53454 0,-1.06908 0,-1.60362 0,-0.53454 0,-1.06908 0,-1.60361 -0.002,-0.56061 0.002,-1.12119 0.004,-1.68178 2.7e-4,-0.59201 -0.002,-1.18402 -0.003,-1.77603 0.003,-0.60581 0.003,-1.2116 0.002,-1.81742 -0.002,-0.55794 -0.002,-1.11589 -0.003,-1.67383 5.3e-4,-0.54605 -0.003,-1.0921 0.003,-1.63813 0.003,-0.60239 8e-5,-1.20479 -0.001,-1.80718 -0.001,-0.54485 -0.001,-1.0897 -0.002,-1.63456 -1.2e-4,-0.53413 -9e-5,-1.06826 -9e-5,-1.60239 1e-5,-0.53435 2e-5,-1.0687 2e-5,-1.60306 1e-5,-0.53453 1e-5,-1.06906 1e-5,-1.6036 0,-0.53454 0,-1.06908 0,-1.60362 0.0106,-0.52861 -0.0237,-1.05894 0.0213,-1.5861 0.0749,-0.41625 0.15687,-0.56391 -0.29062,-0.65288 -0.51384,-0.0626 -1.03369,-0.0526 -1.55043,-0.0515 -0.59697,0.008 -1.18007,0.15886 -1.77495,0.21287 -0.74228,0.0635 -1.48934,0.0172 -2.22931,0.10055 -0.79624,0.0609 -1.56797,0.26561 -2.3579,0.37253 -0.78426,0.1486 -1.56937,0.28819 -2.35416,0.43245 -0.801,0.14855 -1.61598,0.18853 -2.42861,0.21084 -0.85559,-0.0296 -1.70119,0.0589 -2.550595,0.14274 -0.836935,0.0761 -1.66466,0.23211 -2.48286,0.42047 -0.788004,0.16331 -1.592475,0.21356 -2.39494,0.23697 -0.843772,0.0124 -1.687679,0.0152 -2.531533,0.0184 -0.720577,0.0146 -1.434291,0.14327 -2.15346,0.19889 -0.709062,0.14332 -1.425136,0.23645 -2.145853,0.29399 -0.65601,0.0357 -1.313087,0.0417 -1.969897,0.0449 -0.648848,-0.002 -1.297694,-0.003 -1.946539,-0.004 -0.691777,-0.005 -1.383562,0.001 -2.075342,-7.9e-4 -0.626866,-2.7e-4 -1.253728,0.002 -1.880592,0.003 -0.568984,0.003 -1.137951,-2.2e-4 -1.706927,-0.002 -0.592574,-1.4e-4 -1.185146,10e-4 -1.77772,0.002 -0.541073,5.3e-4 -1.082143,8e-4 -1.623216,8e-4 -0.457502,-0.0749 -0.902237,-0.17087 -1.337397,-0.32772 -0.426167,-0.0881 -0.834316,-0.22463 -1.253834,-0.33843 -0.46699,-0.10808 -0.948148,-0.12043 -1.42517,-0.13245 -0.530643,-0.009 -1.06139,-0.006 -1.592083,-0.005 -0.435835,0.13867 -0.909839,0.1314 -1.338059,0.28354 -0.422986,0.1312 -0.850254,0.19679 -1.270201,0.33557 -0.217098,0.0684 -0.442246,0.0983 -0.666829,0.12865 0,0 2.098236,-1.57744 2.098236,-1.57744 v 0 c 0.218495,-0.0427 0.436417,-0.0877 0.647332,-0.16078 0.420732,-0.12649 0.859398,-0.18187 1.275773,-0.3267 0.453811,-0.0888 0.910648,-0.18458 1.37141,-0.2219 0.532884,-6.6e-4 1.0659,-0.003 1.598644,0.0113 0.493681,0.0191 0.9912,0.0452 1.469456,0.18016 0.41992,0.12543 0.843764,0.22666 1.263703,0.3505 0.411922,0.13997 0.844031,0.22247 1.276961,0.26214 0.540388,7e-5 1.080778,1.6e-4 1.621166,7.4e-4 0.590814,6.9e-4 1.181631,0.002 1.772449,0.002 0.57033,-10e-4 1.140653,-0.004 1.710991,-10e-4 0.624033,10e-4 1.248069,0.003 1.872104,0.003 0.691881,-0.002 1.383755,0.005 2.075636,9.2e-4 0.650771,3.8e-4 1.301556,0.002 1.952318,-0.002 0.650771,-0.002 1.302408,-0.005 1.951511,-0.0574 0.717669,-0.0644 1.42617,-0.18311 2.138412,-0.28893 0.722361,-0.0686 1.442773,-0.19406 2.169777,-0.18289 0.838965,0.005 1.678265,0.0109 2.516854,-0.0202 0.795446,-0.0373 1.592525,-0.0961 2.37041,-0.27729 0.822024,-0.17728 1.654104,-0.31638 2.492274,-0.38896 0.85459,-0.0874 1.7071,-0.1424 2.56684,-0.13341 0.80611,-0.0324 1.61323,-0.083 2.40586,-0.24342 0.78511,-0.1531 1.57503,-0.27748 2.36135,-0.42443 0.7893,-0.125 1.5695,-0.30733 2.36879,-0.36308 0.74536,-0.0533 1.49512,-0.0273 2.23878,-0.113 0.59572,-0.0754 1.18809,-0.20899 1.79155,-0.19024 0.53937,4.5e-4 1.08981,-0.0258 1.61787,0.10209 0.44782,0.18278 0.61698,0.50082 0.46649,0.97634 -0.0985,0.51054 -0.0157,1.03972 -0.0426,1.55719 0,0.53454 0,1.06908 0,1.60362 0,0.53454 0,1.06907 0,1.6036 1e-5,0.53435 1e-5,1.06869 2e-5,1.60304 1e-5,0.53416 4e-5,1.06832 -8e-5,1.60248 -1.7e-4,0.5454 -5.3e-4,1.0908 -0.002,1.6362 -0.001,0.6028 -0.004,1.20561 -0.001,1.80842 0.005,0.54513 0.002,1.0903 0.003,1.63545 -5.3e-4,0.55887 -0.001,1.11774 -0.003,1.67661 -0.001,0.6052 -0.001,1.21038 0.002,1.81556 -10e-4,0.59298 -0.003,1.18597 -0.003,1.77895 0.002,0.55922 0.006,1.11843 0.004,1.67767 0,0.53454 0,1.06908 0,1.60362 0,0.53453 0,1.06907 0,1.60361 0,0.53454 0,1.06908 0,1.60362 0,0.53454 0,1.06908 0,1.60362 0,0.53454 0,1.06907 0,1.60361 0,0.53454 1e-5,1.06908 1e-5,1.60362 0,0.53455 1e-5,1.06911 -1.3e-4,1.60366 -1.8e-4,0.53456 -5.3e-4,1.06913 -0.001,1.60369 -5.3e-4,0.5338 -0.002,1.06762 0.004,1.60139 0.009,0.53101 0.0223,1.06315 0.0934,1.5902 0.0777,0.53641 0.20744,1.06721 0.17447,1.61305 0.009,0.49517 0.0206,0.99213 0.0971,1.48243 0.0847,0.48673 0.21797,0.96483 0.16794,1.46453 -0.004,0.51641 -0.008,1.03381 -0.0588,1.5482 -0.0557,0.46935 -0.19079,0.92662 -0.20351,1.39812 -0.0162,0.47217 -0.021,0.96922 -0.2682,1.38756 -1.60688,0.94606 -2.06446,1.61032 -3.61072,1.51439 -0.49322,-0.0196 -0.98973,-0.0473 -1.46824,-0.1789 -0.42986,-0.12224 -0.86101,-0.21609 -1.30293,-0.28553 -0.50119,-0.0881 -1.00788,-0.0529 -1.51452,-0.081 -0.53462,-0.0319 -1.06853,-0.0863 -1.58742,-0.22606 -0.45944,-0.11185 -0.9276,-0.17663 -1.39133,-0.26828 -0.51674,-0.045 -1.03727,-0.007 -1.55542,-0.0193 -0.53727,-2e-5 -1.07453,-3e-5 -1.6118,-7.9e-4 -0.61879,-0.001 -1.23758,-0.003 -1.85637,-0.006 -0.76954,-0.002 -1.53907,-7.9e-4 -2.30861,0.002 -0.768252,-0.003 -1.536501,-0.004 -2.304756,-0.002 -0.811247,-0.002 -1.622504,-0.003 -2.433746,0.001 -0.803447,8e-4 -1.606886,-0.006 -2.410335,-0.003 -0.702392,0.004 -1.404795,0.009 -2.107195,0.007 -0.726937,-0.003 -1.453875,-0.007 -2.18082,-0.006 -0.775962,-0.002 -1.551924,0.001 -2.327884,-0.002 -0.788948,-10e-4 -1.578279,-0.002 -2.366663,0.0317 -0.869834,0.0511 -1.735744,0.1466 -2.591247,0.31639 -0.955665,0.16322 -1.909977,0.2323 -2.879823,0.23616 -0.982149,0.0598 -1.961163,0.15322 -2.931679,0.31973 -0.778425,0.0942 -1.539446,0.27733 -2.31731,0.37355 -0.634612,0.0872 -1.279422,0.11757 -1.90055,0.28287 -0.60906,0.18305 -1.194668,0.43609 -1.814404,0.58502 -0.571484,0.18721 -1.141037,0.39252 -1.748494,0.42315 -0.492879,0.0467 -1.037907,0.1173 -1.333076,-0.3696 -0.122513,-0.44207 0.132135,-0.78949 0.202713,-1.21799 0.09868,-0.48765 0.182914,-0.96124 0.140126,-1.46348 0.0092,-0.54056 0.02334,-1.08224 0.09548,-1.61881 0.07636,-0.52776 0.209647,-1.04888 0.16941,-1.58611 0,-0.53454 0,-1.06908 0,-1.60362 0,-0.53454 0,-1.06908 0,-1.60361 0,-0.53454 0,-1.06908 0,-1.60362 0,-0.53454 0,-1.06908 0,-1.60362 0,-0.53454 0,-1.06908 0,-1.60362 0,-0.53453 0,-1.06907 0,-1.60361 0,-0.53454 0,-1.06908 0,-1.60362 0,-0.53454 0,-1.06908 -3e-6,-1.60362 0,-0.53454 0,-1.06907 -5e-6,-1.60361 -6e-6,-0.53455 -1.6e-5,-1.06909 10e-6,-1.60364 4.5e-5,-0.53457 1.03e-4,-1.06914 5.29e-4,-1.60372 5.3e-4,-0.53427 0.0013,-1.06855 0.0013,-1.60283 -7.93e-4,-0.53149 -7.93e-4,-1.0633 -0.02782,-1.59425 -0.03441,-0.54271 -0.09916,-1.08165 -0.201277,-1.61611 -0.07814,-0.59507 -0.01863,-1.19791 -0.03545,-1.79689 -0.0013,-0.61038 -0.004,-1.22074 0.0013,-1.83112 0.0024,-0.66348 0.0019,-1.32693 -0.0039,-1.9904 0.0016,-0.58082 0.0046,-1.16167 -1.38e-4,-1.74249 -0.0085,-0.59568 -0.02445,-1.19223 -0.09568,-1.78432 -0.0767,-0.60102 -0.201858,-1.19864 -0.176046,-1.80753 -0.0091,-0.51856 -0.02191,-1.03848 -0.09537,-1.55274 -0.07627,-0.49043 -0.200192,-0.97494 -0.182124,-1.47486 0,0 2.358046,-1.20149 2.358046,-1.20149 z"
         id="path4731"
         style="opacity:1;fill:#000000;fill-opacity:1;stroke:none;stroke-width:2;stroke-linecap:butt;stroke-miterlimit:4;stroke-dasharray:none;stroke-opacity:1" />
      <path
         sodipodi:nodetypes="cccccccccccccccccccccccccccccccccccccccccccccccccccccccccccccccccccccccccccccccccccccscccccccccc"
         inkscape:connector-curvature="0"
         d="m 28.917983,118.01932 c -0.07183,-0.46636 -0.154247,-0.92987 -0.200385,-1.40031 -0.0078,-0.50466 -0.06474,-0.99373 -0.167354,-1.48664 -0.102708,-0.49087 -0.128026,-0.99225 -0.144944,-1.49199 -0.01296,-0.53229 -0.0113,-1.06479 -0.01093,-1.59719 7.94e-4,-0.535 0.0013,-1.07 0.0016,-1.605 2.44e-4,-0.5346 2.54e-4,-1.0692 2.65e-4,-1.60381 5e-6,-0.53453 -3e-6,-1.06907 -8e-6,-1.6036 -3e-6,-0.53454 -3e-6,-1.06908 -3e-6,-1.60362 -2e-6,-0.53454 -2e-6,-1.06908 -2e-6,-1.60362 0.0016,-0.34244 -0.02397,-0.85633 0.330104,-1.06133 0.810192,-0.46909 1.636784,-0.90926 2.455175,-1.36389 0.511413,-0.0807 1.031859,-0.0702 1.54799,-0.0652 0.606427,0.006 1.212876,0.008 1.819328,0.009 0.546335,8.5e-4 1.092671,7.7e-4 1.639006,7.7e-4 0.527328,0.0214 1.062344,-0.0492 1.583312,0.0445 0.470011,0.13502 0.916527,0.31819 1.401423,0.40709 0.514993,0.0769 1.036881,0.0807 1.55642,0.0856 0.598165,0.005 1.196332,0.003 1.794502,7.4e-4 0.559961,-0.002 1.119926,-0.003 1.67989,-0.003 0.53518,-3.2e-4 1.070361,-2.9e-4 1.605542,-2.6e-4 l 1.602546,3e-5 c 0.453954,-0.11479 0.912443,-0.191 1.37863,-0.2312 0.519105,-0.0355 1.039741,-0.0361 1.559806,-0.0379 0.534766,-5.9e-4 1.069528,5.8e-4 1.604294,10e-4 0.54456,0.001 1.089125,-9.8e-4 1.633677,0.003 0.606375,0.019 1.200539,0.011 1.797833,-0.0928 0.542997,-0.10322 1.0941,-0.1422 1.645394,-0.16406 0.452384,-0.13012 0.913122,-0.20536 1.381265,-0.24549 0.51897,-0.0348 1.039423,-0.0348 1.559313,-0.0362 0.53474,-2.9e-4 1.06948,9e-4 1.60421,0.001 0.53156,-0.0188 1.06937,0.0467 1.59498,-0.0437 0.52985,-0.11257 1.06774,-0.1684 1.60769,-0.19998 0.53586,-0.0248 1.07246,-0.0243 1.60877,-0.0249 0.53463,2e-4 1.06925,0.001 1.60388,0.002 0.50642,0.053 0.97973,-0.0437 1.47027,-0.14401 0.48689,-0.0904 0.98288,-0.10581 1.47662,-0.11789 0.55897,0.0422 0.7733,0.45128 0.89022,0.94373 0.15269,0.43546 0.23699,0.8844 0.28491,1.34198 0.0429,0.5239 0.043,1.05004 0.0448,1.57532 5.3e-4,0.53531 -0.001,1.07061 -0.002,1.60591 -5.3e-4,0.53474 -7.9e-4,1.06948 -7.9e-4,1.60422 -0.0461,0.4845 0.0694,0.94871 0.15375,1.42067 0.0923,0.54298 0.0954,1.09468 0.10532,1.64371 0.0352,0.52674 -0.0988,1.04017 -0.17417,1.55729 -0.0664,0.50681 -0.17603,3.19005 -0.18353,3.70039 l -2.30119,1.41988 0.0334,-2.63929 c 0.005,-0.51906 0.0435,-0.80535 0.0989,-1.32202 0.0641,-0.51043 0.2145,-1.01169 0.20324,-1.52742 -0.009,-0.53434 -0.0196,-1.07076 -0.10017,-1.6001 -0.0841,-0.48681 -0.21626,-0.96501 -0.16819,-1.46462 6e-5,-0.53484 1.4e-4,-1.06967 7.9e-4,-1.60451 5.3e-4,-0.53495 0.002,-1.06989 0.002,-1.60484 -0.001,-0.51707 -2.7e-4,-1.03484 -0.0373,-1.55088 -0.042,-0.44799 -0.11862,-0.88796 -0.27391,-1.31235 -0.0837,-0.41071 -0.22803,-0.65914 -0.69067,-0.64037 -0.48819,0.02 -0.97725,0.0515 -1.4558,0.15688 -0.49543,0.0989 -0.98982,0.11763 -1.4949,0.0969 -0.53445,-5.3e-4 -1.0689,-0.002 -1.60335,-8.2e-4 -0.53296,0.002 -1.0664,0.004 -1.59845,0.0388 -0.53712,0.0425 -1.06828,0.12225 -1.59963,0.21039 -0.537,0.0378 -1.07583,0.012 -1.61387,0.0186 -0.534514,-6.3e-4 -1.069033,-0.002 -1.603547,1.2e-4 -0.516239,0.004 -1.033581,0.007 -1.54768,0.0598 -0.466267,0.0576 -0.919797,0.17669 -1.385917,0.23055 -0.545171,0.0305 -1.087762,0.0867 -1.62551,0.18371 -0.604443,0.082 -1.211146,0.0582 -1.819952,0.0593 -0.546354,0.003 -1.092718,10e-4 -1.63908,10e-4 -0.534506,-6.1e-4 -1.069015,-0.002 -1.603516,5.8e-4 -0.516485,0.004 -1.03402,0.009 -1.548349,0.0612 -0.466201,0.0568 -0.922166,0.17535 -1.390759,0.20646 -0.534196,0 -1.068392,0 -1.602589,-1e-5 -0.534974,0 -1.069948,-1e-5 -1.604923,-6e-5 -0.558236,-4e-5 -1.116472,-1.3e-4 -1.674706,-2e-5 -0.600835,2.5e-4 -1.201693,0.004 -1.802503,-6e-5 -0.530696,-0.01 -1.06443,-0.0222 -1.587088,-0.12432 -0.473342,-0.10705 -0.917715,-0.30197 -1.394134,-0.39067 -0.517459,-0.045 -1.038728,-0.006 -1.557602,-0.0194 -0.545486,-3.5e-4 -1.090975,-8.5e-4 -1.636456,-0.004 -0.605494,-0.004 -1.210982,-0.0102 -1.816492,-0.009 -0.503486,0.006 -1.02317,-0.0121 -1.505889,0.15211 0.689269,-0.40557 1.383832,-0.80228 2.067806,-1.21671 0.05385,-0.0326 -0.120716,0.0389 -0.175416,0.0701 -0.2784,0.15873 -0.287115,0.47606 -0.274672,0.76109 v 1.60362 c 0,0.53453 0,1.06907 6e-6,1.60361 2e-6,0.53454 10e-6,1.06908 7e-6,1.60361 -10e-6,0.53465 -1.3e-5,1.06929 -2.3e-4,1.60394 -2.64e-4,0.53502 -7.93e-4,1.07004 -0.0016,1.60506 -5.29e-4,0.52963 -0.0024,1.05933 0.0086,1.58888 0.01416,0.48495 0.03372,0.97191 0.129299,1.44902 0.103783,0.50317 0.177517,0.99981 0.17381,1.51599 0.04283,0.4755 0.108926,2.27101 0.237281,2.732 l -2.358046,1.20149 z"
         id="path4737"
         style="opacity:1;fill:#000000;fill-opacity:1;stroke:none;stroke-width:2;stroke-linecap:butt;stroke-miterlimit:4;stroke-dasharray:none;stroke-opacity:1" />
      <path
         sodipodi:nodetypes="ccccccccccccccccccccccccccccccccccccccccccccccccccccccccccccccccccccccccccccccccccccccccccccccccccccccccccccccccccccccccccccccccccccccsccsccccccccccccccccccccccccccccccccccccccccccccccccccc"
         inkscape:connector-curvature="0"
         d="m 31.543298,125.09168 c -0.01923,0.54346 -0.01535,1.08747 -0.015,1.63118 -0.04657,0.507 0.06876,0.99394 0.155895,1.48829 0.08291,0.50362 0.09827,1.01452 0.109406,1.52374 -0.02564,0.49438 0.02167,0.97143 0.118371,1.45448 0.100124,0.48993 0.126074,0.98976 0.143294,1.48816 -0.0016,0.4694 0.133569,0.92367 0.19971,1.38624 0.05758,0.48423 0.04453,0.96861 0.144317,1.44686 0.115908,0.47504 0.157085,0.96179 0.18238,1.4486 0.08888,0.4524 0.184787,0.90066 0.234733,1.35969 0.04634,0.52135 0.04871,1.0452 0.05183,1.56818 0.0016,0.53504 1.74e-4,1.07008 -5.3e-4,1.60512 -5.29e-4,0.53476 -7.93e-4,1.06952 -7.93e-4,1.60428 0.02498,0.50905 -0.0058,1.00546 -0.105736,1.50417 -0.102722,0.47619 -0.1314,0.96269 -0.150042,1.44806 -0.01492,0.52971 -0.01347,1.0597 -0.01331,1.58957 -0.04142,0.46996 -0.154755,0.92832 -0.209076,1.39727 -0.04945,0.51308 -0.05304,1.02902 -0.05702,1.544 -0.0024,0.53439 -7.94e-4,1.06878 -2.65e-4,1.60316 5.3e-4,0.53484 7.94e-4,1.06967 7.94e-4,1.60451 -0.0016,0.41686 -0.09021,0.87639 0.332311,1.0974 0.443199,0.13455 0.915012,0.1211 1.373701,0.124 0.536417,-0.001 1.072814,-0.006 1.609225,-0.009 0.463979,0.0952 0.926351,0.18268 1.398463,0.22552 0.514051,0.0373 1.029798,0.0383 1.544921,0.0405 0.534384,7.9e-4 1.068768,-2.7e-4 1.603153,-8e-4 0.519914,-0.0285 1.05298,0.0594 1.564486,-0.0487 0.458256,-0.12453 0.929968,-0.17009 1.402252,-0.19806 0.528773,-0.002 1.0433,-0.0199 1.562796,-0.11641 0.532307,-0.10397 1.073515,-0.13941 1.614355,-0.16027 0.516324,1.4e-4 1.01649,0.004 1.519743,-0.11282 0.474445,-0.13623 0.937395,-0.28689 1.428766,-0.36209 0.438782,-0.18281 0.901472,-0.26136 1.371494,-0.30539 0.458864,-0.0484 0.898906,-0.19038 1.3604,-0.2467 0.511405,-0.0502 1.025853,-0.0523 1.539214,-0.0555 0.587041,-0.001 1.174064,0.003 1.761111,0.003 0.570085,-2.6e-4 1.140172,-7.9e-4 1.710256,-0.001 0.456147,-0.11342 0.91617,-0.19107 1.384229,-0.2315 0.507135,-0.14441 1.0269,-0.22143 1.55107,-0.2666 0.57519,-0.0412 1.1522,-0.035 1.72845,-0.0364 0.57773,-0.0928 1.15468,-0.18175 1.73815,-0.22893 0.53969,-0.0366 1.08086,-0.0384 1.62153,-0.0405 0.53422,-7.9e-4 1.06844,5.3e-4 1.60266,0.001 0.51952,-0.0275 1.05213,0.0606 1.56327,-0.0473 0.45824,-0.12446 0.92992,-0.17003 1.40218,-0.198 0.48058,-0.0135 0.96555,0.0194 1.39737,-0.22047 -0.70176,0.39526 -1.39631,0.80359 -2.10528,1.18576 -0.0514,0.0277 0.0914,-0.0741 0.12779,-0.11978 0.1794,-0.22524 0.19958,-0.53833 0.23026,-0.81135 0.0127,-0.47315 0.13974,-0.93093 0.20775,-1.39724 0.0634,-0.50526 0.0703,-1.01515 0.0765,-1.52362 0.004,-0.53383 0.002,-1.06768 0.002,-1.60152 -7.9e-4,-0.5349 -0.001,-1.0698 -0.001,-1.6047 -1.1e-4,-0.53458 -10e-5,-1.06915 -10e-5,-1.60372 10e-6,-0.53454 10e-6,-1.06907 10e-6,-1.60361 1e-5,-0.53454 1e-5,-1.06907 1e-5,-1.60361 -0.0251,-0.50905 0.006,-1.00546 0.10568,-1.50415 0.10273,-0.47621 0.13141,-0.96271 0.15006,-1.44808 0.0149,-0.52971 0.0135,-1.0597 0.0133,-1.58956 -5.3e-4,-0.53504 -0.001,-1.07007 -0.002,-1.60511 -2.6e-4,-0.53464 -2.6e-4,-1.06929 -2.6e-4,-1.60393 -10e-6,-0.53454 0,-1.06907 0,-1.60361 -0.018,-0.51747 0.0361,-1.0398 -0.0265,-1.55453 -0.10452,-0.46383 -0.17109,-0.93242 -0.20786,-1.40609 -0.0325,-0.52627 -0.033,-1.0538 -0.0346,-1.58086 0.0144,-0.47182 -0.12091,-0.92966 -0.18705,-1.39405 -0.0326,-0.4454 -0.0923,-0.89078 -0.25358,-1.30955 -0.22562,-0.34069 -0.66247,-0.34345 -1.03215,-0.37186 -0.52289,-0.0247 -1.04665,-0.0164 -1.56992,-0.0133 -0.51734,-0.0113 -1.01821,-0.013 -1.52209,0.10497 -0.45185,0.0439 -0.86909,0.1913 -1.3046,0.30383 -0.49029,0.0566 -0.96481,0.17251 -1.44833,0.26791 -0.49448,0.0346 -0.95165,0.21938 -1.43581,0.30981 -0.50997,-0.0169 -0.91236,0.23382 -1.36674,0.41241 -0.458716,0.0933 -0.660056,-0.11962 -1.113382,-0.005 -0.448202,0.0466 -0.858317,0.22393 -1.299777,0.30698 -0.425635,0.0528 -0.701368,-0.089 -1.088644,0.0845 -0.425429,0.13503 -0.939696,-0.13554 -1.36663,-0.007 -0.448966,0.0985 -1.013299,-0.0194 -1.454737,0.10847 -0.465387,0.12464 -1.186448,0.0286 -1.665357,0.0466 -0.486032,-0.0382 -0.943716,0.11686 -1.417693,0.19272 -0.483132,0.0458 -0.952836,0.063 -1.423432,0.18246 -0.470083,0.11546 -0.954487,0.14025 -1.436145,0.15836 -0.52936,0.0143 -1.058987,0.0124 -1.58849,0.012 -0.535104,-7.9e-4 -1.07021,-0.001 -1.605317,-0.002 -0.534654,-2.6e-4 -1.069311,-2.6e-4 -1.603965,-2.6e-4 -0.534537,-10e-6 -1.069075,0 -1.603613,1e-5 -0.506447,-0.0527 -0.612288,-0.0226 -1.10283,0.0777 -0.486897,0.0904 -0.581984,0.0724 -1.075725,0.0845 -0.531591,0.009 -0.662383,0.0404 -1.194023,0.0404 -0.53503,-8e-4 -0.735975,0.0324 -1.271005,0.0314 -0.534615,-1.9e-4 -0.768554,0.10004 -1.303171,0.10003 -0.51431,0.0473 -1.101557,0.12884 -1.601329,0.0271 -0.352565,-0.0687 -0.712925,-0.18235 -1.03396,-0.34599 l 1.659529,-1.51964 0.534539,0.0668 c 0.319916,0.13197 0.75249,0.0765 1.095134,0.13078 0.48564,0.0974 0.667427,0.0272 1.163372,0.002 0.534633,2e-5 0.735182,-0.0334 1.269817,-0.0331 0.535033,2.6e-4 0.669164,-0.0324 1.204196,-0.0314 0.530413,7e-5 0.660062,0.0354 1.190293,0.0188 0.488188,-0.02 0.609745,0.0153 1.088294,-0.0901 0.49539,-0.0989 0.989761,-0.11785 1.494827,-0.0976 0.53454,0 1.069081,-1e-5 1.603618,0 0.534681,4e-5 1.069362,9e-5 1.60404,5.3e-4 0.535077,5.3e-4 1.070154,0.001 1.605229,0.002 0.527696,-5.3e-4 1.05569,5.3e-4 1.582952,-0.0238 0.476276,-0.0288 0.950963,-0.0781 1.414145,-0.19859 0.472612,-0.0937 0.956212,-0.0809 1.429906,-0.17143 0.475189,-0.0907 1.183937,-0.0641 1.671495,-0.0445 0.472424,-0.0292 1.063435,0.0816 1.518669,-0.0561 0.44096,-0.10944 0.978695,0.18909 1.412681,0.0467 0.422783,-0.11472 0.749795,0.17327 1.148194,-0.0233 0.3948,-0.17096 0.812847,-0.28477 1.236535,-0.35804 0.43078,-0.10756 0.61579,0.11768 1.05375,0.0397 0.44279,-0.12948 0.89748,-0.21325 1.32918,-0.37672 0.4523,-0.19667 0.90215,-0.33006 1.39671,-0.37447 0.47554,-0.11228 0.94442,-0.24644 1.43131,-0.30506 0.48102,-0.10411 0.96643,-0.17725 1.44563,-0.28724 0.43259,-0.12666 0.87044,-0.2094 1.31432,-0.2875 0.51133,-0.0849 1.02881,-0.05 1.54534,-0.0597 0.53025,-0.002 1.06183,-0.0114 1.59072,0.0333 0.47418,0.0612 0.93939,0.16051 1.19215,0.61107 0.17167,0.43584 0.25034,0.90016 0.27741,1.36669 0.0638,0.47687 0.20651,0.94516 0.19794,1.4282 10e-4,0.52097 7.9e-4,1.04232 0.0291,1.56269 0.0327,0.46864 0.0929,0.93313 0.2026,1.39067 0.0778,0.52502 0.0198,1.05939 0.0374,1.58877 -1e-5,0.53453 -2e-5,1.06907 -2e-5,1.6036 2e-5,0.53461 2e-5,1.06922 2.2e-4,1.60382 2.6e-4,0.53503 8e-4,1.07006 0.002,1.60509 5.3e-4,0.53219 0.002,1.06444 -0.008,1.59656 -0.0134,0.49651 -0.0316,0.9951 -0.12475,1.48435 -0.0993,0.48691 -0.18459,0.95932 -0.13638,1.46101 v 1.60362 c 0,0.53453 -1e-5,1.06907 -1e-5,1.6036 -10e-6,0.53456 -2e-5,1.06912 6e-5,1.60368 1e-4,0.53483 2.6e-4,1.06967 7.9e-4,1.6045 5.3e-4,0.53461 0.002,1.06923 -2e-5,1.60384 -0.004,0.51684 -0.007,1.03468 -0.0575,1.54956 -0.0552,0.46711 -0.18802,0.92013 -0.21416,1.38809 -0.10909,1.62737 -0.71876,1.58505 -2.66635,2.54274 -0.47198,0.13273 -0.95358,0.12471 -1.44017,0.14925 -0.46991,0.0416 -0.93175,0.12292 -1.39461,0.21237 -0.52559,0.0343 -1.05309,0.007 -1.57951,0.0151 -0.53386,-5.3e-4 -1.06774,-0.002 -1.6016,5.2e-4 -0.53597,0.004 -1.07262,0.01 -1.60692,0.057 -0.58352,0.0579 -1.16032,0.16798 -1.74549,0.20658 -0.57404,0.003 -1.149151,0.008 -1.721103,0.0622 -0.524172,0.0605 -1.036132,0.1756 -1.554464,0.27019 -0.467678,0.057 -0.925235,0.17592 -1.395468,0.206 -0.568201,-5.2e-4 -1.136404,-0.002 -1.704605,-0.003 -0.588841,-0.001 -1.177674,-5.3e-4 -1.766501,0.005 -0.508503,0.007 -1.018873,0.0147 -1.523164,0.0872 -0.455634,0.0766 -0.899792,0.21501 -1.363374,0.23996 -0.464159,0.0654 -0.907571,0.19702 -1.359694,0.31607 -0.484724,0.0987 -0.945658,0.27471 -1.430745,0.37 -0.508566,0.0841 -1.023101,0.0478 -1.536435,0.0766 -0.535255,0.0296 -1.068419,0.0828 -1.595263,0.1851 -0.524671,0.079 -1.052129,0.065 -1.580729,0.0995 -0.469916,0.0416 -0.931773,0.1229 -1.394614,0.2125 -0.525864,0.0345 -1.053679,0.008 -1.580385,0.0168 -0.534853,5.3e-4 -1.06971,0.002 -1.60456,-5.3e-4 -0.521468,-0.004 -1.043885,-0.008 -1.563399,-0.0584 -0.462376,-0.0533 -0.914919,-0.16147 -1.377731,-0.20552 -0.537638,0.003 -1.075293,0.01 -1.612937,0.006 -0.497443,-0.0102 -1.017368,-0.005 -1.470004,-0.23949 -0.448413,-0.34341 -0.482668,-0.7909 -0.447974,-1.32973 -7.1e-5,-0.53477 -1.77e-4,-1.06954 -7.93e-4,-1.60431 -5.3e-4,-0.53488 -0.0019,-1.06976 -7.94e-4,-1.60463 0.0021,-0.52171 0.0034,-1.04405 0.04156,-1.56465 0.04225,-0.46438 0.121912,-0.9207 0.225632,-1.37525 -5.3e-4,-0.53219 -0.0024,-1.06444 0.0078,-1.59656 0.01341,-0.49651 0.0316,-0.99509 0.124748,-1.48434 0.09926,-0.48693 0.184579,-0.95936 0.136411,-1.46107 7.7e-5,-0.53485 1.91e-4,-1.0697 7.94e-4,-1.60454 5.29e-4,-0.53449 0.0019,-1.06897 7.94e-4,-1.60346 -0.0024,-0.51456 -0.0034,-1.02985 -0.04409,-1.54314 -0.04609,-0.46454 -0.139149,-0.91807 -0.239228,-1.37357 -0.02164,-0.4729 -0.05545,-0.94666 -0.168063,-1.4082 -0.105913,-0.48484 -0.107585,-0.97168 -0.151162,-1.46489 -0.0633,-0.47262 -0.204938,-0.93483 -0.208455,-1.41284 -0.0145,-0.48414 -0.03481,-0.97011 -0.128934,-1.44662 -0.100126,-0.49822 -0.16783,-0.98813 -0.133659,-1.4991 -0.0092,-0.49635 -0.02061,-0.99441 -0.09606,-1.48604 -0.08639,-0.50964 -0.216442,-1.01115 -0.166089,-1.53353 2.64e-4,-0.53861 0.0044,-1.07754 -0.015,-1.61588 l 2.358046,-1.20149 z"
         id="path4739"
         style="opacity:1;fill:#000000;fill-opacity:1;stroke:none;stroke-width:2;stroke-linecap:butt;stroke-miterlimit:4;stroke-dasharray:none;stroke-opacity:1" />
    </g>
    <g
       id="g5544"
       transform="matrix(1.1362849,0,0,1.1362849,-19.823859,116.44074)">
      <circle
         r="11.311768"
         cy="135.37959"
         cx="40.648968"
         id="path847-0-9"
         style="opacity:1;fill:#14bc0b;fill-opacity:1;stroke:none;stroke-width:4.70260572;stroke-linecap:butt;stroke-miterlimit:4;stroke-dasharray:none;stroke-opacity:1" />
      <circle
         r="9.6958008"
         cy="135.37959"
         cx="40.648968"
         id="path847-814-6"
         style="opacity:1;fill:#ffffff;fill-opacity:0.97989951;stroke:none;stroke-width:4.03080511;stroke-linecap:butt;stroke-miterlimit:4;stroke-dasharray:none;stroke-opacity:1" />
      <circle
         r="8.079834"
         cy="135.37959"
         cx="40.648968"
         id="path847-81-0-0"
         style="opacity:1;fill:#ff9301;fill-opacity:1;stroke:none;stroke-width:3.35900402;stroke-linecap:butt;stroke-miterlimit:4;stroke-dasharray:none;stroke-opacity:1" />
      <circle
         r="6.4638672"
         cy="135.37959"
         cx="40.648968"
         id="path847-81-6"
         style="opacity:1;fill:#ffffff;fill-opacity:0.97989951;stroke:none;stroke-width:2.68720317;stroke-linecap:butt;stroke-miterlimit:4;stroke-dasharray:none;stroke-opacity:1" />
      <circle
         r="4.8479004"
         cy="135.37959"
         cx="40.648968"
         id="path847-8-2"
         style="opacity:1;fill:#2f70ee;fill-opacity:1;stroke:none;stroke-width:2.01540256;stroke-linecap:butt;stroke-miterlimit:4;stroke-dasharray:none;stroke-opacity:1" />
      <circle
         r="3.2319336"
         cy="135.37959"
         cx="40.648968"
         id="path847-1"
         style="opacity:1;fill:#ffffff;fill-opacity:0.97989951;stroke:none;stroke-width:1.34360158;stroke-linecap:butt;stroke-miterlimit:4;stroke-dasharray:none;stroke-opacity:1" />
      <circle
         r="1.6159668"
         cy="135.37959"
         cx="40.648968"
         id="path847-3-2"
         style="opacity:1;fill:#914299;fill-opacity:1;stroke:none;stroke-width:0.67180079;stroke-linecap:butt;stroke-miterlimit:4;stroke-dasharray:none;stroke-opacity:1" />
    </g>
  </g>
</svg>
